Patient4_TMGait_0pt8_01_right_20_EMG.mot
version=1
nRows=13
nColumns=33
inDegrees=no
endheader
time	1LAddLong	2LGlutMax	3LGlutMed	4LIliopsoas	5LSemiMemb	6LBicFemLong	7LRecFem	8LVastMed	9LVastLat	10LGasMed	11LTibAnt	12lTibPost	13LPeroneusLong	14LSol	15LExtDigLong	16LFlexDigLong	17RAddLong	18RGlutMax	19RGlutMed	20RIliopsoas	21RSemiMemb	22RBicFemLong	23RRecFem	24RVastMed	25RVastLat	26RGasMed	27RTibAnt	28RTibPost	29RPeroneusLong	30RSol	31RExtDigLong	32RFlexDigLong
22.26	-0.006409	-0.065155	-0.12054	0.024567	0.028687	-0.1799	0.15045	-0.014343	-0.010376	-0.19684	0.011292	0.093079	-0.16754	0.076447	0.016785	0.19058	0.038605	0.17364	0.12772	-0.079956	0.016479	0.04364	-0.062561	-0.083618	-0.043182	-0.01358	-0.1004	-0.000305	0.063629	0.036011	-0.002289	0.028076
22.261	0.005341	-0.040894	-0.088348	0.013733	-0.011444	-0.3186	0.18494	-0.015411	-0.005646	0.13123	-0.000916	0.015259	0.014038	-0.28854	0.018463	0.10483	-0.023346	0.15076	0.31113	-0.042267	0.030365	0.072632	-0.20813	-0.081329	-0.042725	-0.011139	-0.4155	-0.00473	-0.030365	0.011597	-0.002899	0.029144
22.262	0.005493	-0.029755	-0.028076	0.001526	-0.001068	-0.34271	0.19577	-0.010223	-0.02182	0.31052	-0.001373	-0.0177	0.22522	-0.18341	0.044708	0.10757	-0.039063	0.14328	0.45258	0.065002	0.038757	0.083771	-0.11795	-0.049744	-0.019073	-0.001526	-0.46967	-0.006256	-0.084991	0.001984	-0.005798	0.022125
22.263	0.008545	-0.058136	-0.072479	-0.011902	0.005798	-0.28153	0.20416	-0.007019	0.006561	0.083313	-0.015869	-0.054626	0.12756	0.12329	0.034027	0.11917	-0.058441	0.1207	0.046844	0.18585	0.045776	0.08606	-0.028534	-0.034485	-0.032349	-0.006409	-0.47257	-0.003357	-0.013733	0.032349	-0.00351	0.009766
22.264	0.016632	-0.094299	-0.13245	-0.007019	0.080261	-0.20126	0.15762	-0.00351	0.020905	0.10742	-0.014343	0.12329	-0.005798	0.42572	0.007324	0.062103	-0.050049	0.055084	-0.50751	0.16388	0.052032	0.089722	-0.048065	-0.014496	-0.023804	-0.00824	-0.0177	-0.001373	0.002289	0.016022	0.000458	0.01236
22.265	0.008087	-0.098724	-0.15961	-0.002747	0.09613	-0.12222	0.11429	-0.004883	0.020599	-0.10147	-0.013275	0.018311	0.018768	0.010223	0.000916	0.052795	-0.048828	0.070343	-0.21942	0.026398	0.057678	0.1088	-0.018616	-0.008392	-0.026093	-0.015869	0.12543	0.000458	0.004578	-0.040588	-0.005493	0.013733
22.266	0.005798	-0.072784	-0.053711	0.025024	0.079346	-0.04364	0.13275	0.006561	-0.004883	-0.31418	-0.008698	0.001068	0.13992	-0.27176	-0.015411	-0.04364	-0.024567	0.074463	0.68756	-0.064087	0.051575	0.1001	-0.028839	-0.011597	-0.040131	-0.021057	0.21088	-0.000763	-0.076447	-0.070343	-0.00412	0.010834
22.267	0.010071	-0.036011	-0.028687	0.011597	0.065765	-0.036316	0.15656	0.000916	0.068512	-0.64194	-0.002747	0.034485	0.12482	-0.17181	-0.013123	0.19562	0.015106	0.057068	1.1388	-0.056305	0.052795	0.099335	-0.046844	0.003357	-0.032654	-0.011902	0.26337	-0.003815	0.10468	-0.11231	-0.00473	0.009308
22.268	0.009613	-0.010986	-0.000305	0.008545	0.043335	-0.015106	0.28275	-0.006561	0.18936	-0.50568	-0.000153	0.020752	0.052643	0.092773	-0.044861	-0.33676	0.095825	0.013885	0.56702	-0.044861	0.049286	0.098114	-0.009308	0.027008	-0.029755	-0.007324	0.074005	-0.007019	0.13641	-0.090027	-0.002441	0.00885
22.269	0.012207	-0.015717	-0.010071	0.014648	0.028381	0.026245	0.2594	-0.004272	0.14999	-0.18906	0.001831	-0.004425	0.057983	0.030518	-0.051422	0.31403	0.094452	0.0354	0.2626	-0.051575	0.048981	0.10574	-0.030823	0.025482	-0.033112	-0.010986	-0.013123	-0.000763	0.0354	-0.008087	0	0.002899
22.27	0.007629	-0.01297	-0.007172	0.007935	0.020905	0.025482	0.1532	-0.00061	-0.071716	-0.24994	-0.007629	0.043945	0.099487	0.3035	-0.031586	0.25833	0.04364	-0.003357	0.36194	-0.092621	0.044556	0.1149	-0.019531	-0.034027	-0.025024	-0.013275	0.021515	-0.001984	-0.045929	0.10605	-0.002747	0.006104
22.271	0.00473	-0.021515	0.003815	0.010834	0.014648	-0.010681	0.1004	0.001221	-0.21088	-0.32074	0.003204	0.049438	0.098724	0.39093	-0.019531	0.061798	-0.006256	0.009918	0.071259	-0.054016	0.055695	0.098572	-0.010071	-0.010834	-0.023804	-0.023041	0.11078	-0.005798	-0.20706	0.092468	-0.000458	0.010681
22.272	0.006409	-0.048981	-0.036316	-0.011444	0.020294	-0.010223	0.14435	0.003052	-0.11841	-0.17487	0.002289	0.037537	0.055237	0.2214	-0.019989	0.000305	-0.049438	0.076141	0.11261	-0.06424	0.04303	0.092316	0.014648	-0.043793	-0.02533	-0.032349	0.1445	-0.001984	-0.22232	0.053711	-0.000916	0.00351
